<mxfile host="app.diagrams.net" modified="2023-10-02T11:49:19.500Z" agent="Mozilla/5.0 (Windows NT 10.0; Win64; x64) AppleWebKit/537.36 (KHTML, like Gecko) Chrome/117.0.0.0 Safari/537.36 Edg/117.0.2045.47" etag="V_5WEY801HptlUKnu4eR" version="22.0.0" type="device">
  <diagram id="C5RBs43oDa-KdzZeNtuy" name="Page-1">
    <mxGraphModel dx="1155" dy="703" grid="1" gridSize="10" guides="1" tooltips="1" connect="1" arrows="1" fold="1" page="1" pageScale="1" pageWidth="827" pageHeight="1169" math="0" shadow="0">
      <root>
        <mxCell id="WIyWlLk6GJQsqaUBKTNV-0" />
        <mxCell id="WIyWlLk6GJQsqaUBKTNV-1" parent="WIyWlLk6GJQsqaUBKTNV-0" />
        <mxCell id="Ao3rH_xXCLcviRNf2sBv-5" value="" style="edgeStyle=orthogonalEdgeStyle;rounded=0;orthogonalLoop=1;jettySize=auto;html=1;" edge="1" parent="WIyWlLk6GJQsqaUBKTNV-1" source="Ao3rH_xXCLcviRNf2sBv-0" target="Ao3rH_xXCLcviRNf2sBv-4">
          <mxGeometry relative="1" as="geometry" />
        </mxCell>
        <mxCell id="Ao3rH_xXCLcviRNf2sBv-0" value="START!!!" style="ellipse;whiteSpace=wrap;html=1;" vertex="1" parent="WIyWlLk6GJQsqaUBKTNV-1">
          <mxGeometry x="290" y="200" width="170" height="60" as="geometry" />
        </mxCell>
        <mxCell id="Ao3rH_xXCLcviRNf2sBv-7" value="" style="edgeStyle=orthogonalEdgeStyle;rounded=0;orthogonalLoop=1;jettySize=auto;html=1;" edge="1" parent="WIyWlLk6GJQsqaUBKTNV-1" source="Ao3rH_xXCLcviRNf2sBv-4" target="Ao3rH_xXCLcviRNf2sBv-6">
          <mxGeometry relative="1" as="geometry" />
        </mxCell>
        <mxCell id="Ao3rH_xXCLcviRNf2sBv-4" value="Ввод el1&lt;br style=&quot;border-color: var(--border-color);&quot;&gt;Ввод el2&lt;br style=&quot;border-color: var(--border-color);&quot;&gt;Ввод el3&lt;br style=&quot;border-color: var(--border-color);&quot;&gt;Ввод el4&lt;br style=&quot;border-color: var(--border-color);&quot;&gt;Ввод el5" style="shape=document;whiteSpace=wrap;html=1;boundedLbl=1;" vertex="1" parent="WIyWlLk6GJQsqaUBKTNV-1">
          <mxGeometry x="315" y="290" width="120" height="110" as="geometry" />
        </mxCell>
        <mxCell id="Ao3rH_xXCLcviRNf2sBv-9" value="" style="edgeStyle=none;curved=1;rounded=0;orthogonalLoop=1;jettySize=auto;html=1;fontSize=12;startSize=8;endSize=8;" edge="1" parent="WIyWlLk6GJQsqaUBKTNV-1" source="Ao3rH_xXCLcviRNf2sBv-6" target="Ao3rH_xXCLcviRNf2sBv-8">
          <mxGeometry relative="1" as="geometry" />
        </mxCell>
        <mxCell id="Ao3rH_xXCLcviRNf2sBv-6" value="&amp;nbsp;primary[]{el1,el2,el3,el4,el5}&lt;br&gt;count = 0" style="shape=parallelogram;perimeter=parallelogramPerimeter;whiteSpace=wrap;html=1;fixedSize=1;" vertex="1" parent="WIyWlLk6GJQsqaUBKTNV-1">
          <mxGeometry x="255" y="450" width="240" height="60" as="geometry" />
        </mxCell>
        <mxCell id="Ao3rH_xXCLcviRNf2sBv-15" value="" style="edgeStyle=none;curved=1;rounded=0;orthogonalLoop=1;jettySize=auto;html=1;fontSize=12;startSize=8;endSize=8;" edge="1" parent="WIyWlLk6GJQsqaUBKTNV-1" source="Ao3rH_xXCLcviRNf2sBv-8" target="Ao3rH_xXCLcviRNf2sBv-14">
          <mxGeometry relative="1" as="geometry" />
        </mxCell>
        <mxCell id="Ao3rH_xXCLcviRNf2sBv-22" value="" style="edgeStyle=none;curved=1;rounded=0;orthogonalLoop=1;jettySize=auto;html=1;fontSize=12;startSize=8;endSize=8;" edge="1" parent="WIyWlLk6GJQsqaUBKTNV-1" source="Ao3rH_xXCLcviRNf2sBv-8" target="Ao3rH_xXCLcviRNf2sBv-21">
          <mxGeometry relative="1" as="geometry" />
        </mxCell>
        <mxCell id="Ao3rH_xXCLcviRNf2sBv-8" value="i = 0; i&amp;lt;primary.Length; i++" style="shape=hexagon;perimeter=hexagonPerimeter2;whiteSpace=wrap;html=1;fixedSize=1;fontSize=16;" vertex="1" parent="WIyWlLk6GJQsqaUBKTNV-1">
          <mxGeometry x="265" y="550" width="220" height="60" as="geometry" />
        </mxCell>
        <mxCell id="Ao3rH_xXCLcviRNf2sBv-13" value="" style="edgeStyle=none;curved=1;rounded=0;orthogonalLoop=1;jettySize=auto;html=1;fontSize=12;startSize=8;endSize=8;exitX=0.5;exitY=1;exitDx=0;exitDy=0;" edge="1" parent="WIyWlLk6GJQsqaUBKTNV-1" source="Ao3rH_xXCLcviRNf2sBv-14" target="Ao3rH_xXCLcviRNf2sBv-12">
          <mxGeometry relative="1" as="geometry">
            <mxPoint x="450" y="720" as="sourcePoint" />
          </mxGeometry>
        </mxCell>
        <mxCell id="Ao3rH_xXCLcviRNf2sBv-20" style="edgeStyle=none;curved=1;rounded=0;orthogonalLoop=1;jettySize=auto;html=1;fontSize=12;startSize=8;endSize=8;" edge="1" parent="WIyWlLk6GJQsqaUBKTNV-1">
          <mxGeometry relative="1" as="geometry">
            <mxPoint x="260" y="580" as="targetPoint" />
            <mxPoint x="330" y="840" as="sourcePoint" />
            <Array as="points">
              <mxPoint x="60" y="845" />
            </Array>
          </mxGeometry>
        </mxCell>
        <mxCell id="Ao3rH_xXCLcviRNf2sBv-12" value="count++" style="whiteSpace=wrap;html=1;fontSize=16;" vertex="1" parent="WIyWlLk6GJQsqaUBKTNV-1">
          <mxGeometry x="332.5" y="810" width="85" height="60" as="geometry" />
        </mxCell>
        <mxCell id="Ao3rH_xXCLcviRNf2sBv-18" style="edgeStyle=none;curved=1;rounded=0;orthogonalLoop=1;jettySize=auto;html=1;entryX=0;entryY=0.5;entryDx=0;entryDy=0;fontSize=12;startSize=8;endSize=8;" edge="1" parent="WIyWlLk6GJQsqaUBKTNV-1" source="Ao3rH_xXCLcviRNf2sBv-14" target="Ao3rH_xXCLcviRNf2sBv-8">
          <mxGeometry relative="1" as="geometry">
            <Array as="points">
              <mxPoint x="250" y="720" />
              <mxPoint x="210" y="710" />
            </Array>
          </mxGeometry>
        </mxCell>
        <mxCell id="Ao3rH_xXCLcviRNf2sBv-14" value="primary[i].Length&amp;lt;=3" style="rhombus;whiteSpace=wrap;html=1;fontSize=16;" vertex="1" parent="WIyWlLk6GJQsqaUBKTNV-1">
          <mxGeometry x="260" y="680" width="230" height="80" as="geometry" />
        </mxCell>
        <mxCell id="Ao3rH_xXCLcviRNf2sBv-16" value="yes" style="text;html=1;align=center;verticalAlign=middle;resizable=0;points=[];autosize=1;strokeColor=none;fillColor=none;fontSize=16;" vertex="1" parent="WIyWlLk6GJQsqaUBKTNV-1">
          <mxGeometry x="330" y="770" width="50" height="30" as="geometry" />
        </mxCell>
        <mxCell id="Ao3rH_xXCLcviRNf2sBv-19" value="no" style="text;html=1;align=center;verticalAlign=middle;resizable=0;points=[];autosize=1;strokeColor=none;fillColor=none;fontSize=16;" vertex="1" parent="WIyWlLk6GJQsqaUBKTNV-1">
          <mxGeometry x="230" y="690" width="40" height="30" as="geometry" />
        </mxCell>
        <mxCell id="Ao3rH_xXCLcviRNf2sBv-25" value="" style="edgeStyle=none;curved=1;rounded=0;orthogonalLoop=1;jettySize=auto;html=1;fontSize=12;startSize=8;endSize=8;" edge="1" parent="WIyWlLk6GJQsqaUBKTNV-1" source="Ao3rH_xXCLcviRNf2sBv-21" target="Ao3rH_xXCLcviRNf2sBv-24">
          <mxGeometry relative="1" as="geometry" />
        </mxCell>
        <mxCell id="Ao3rH_xXCLcviRNf2sBv-21" value="secondary[count]&lt;br&gt;index = 0" style="shape=parallelogram;perimeter=parallelogramPerimeter;whiteSpace=wrap;html=1;fixedSize=1;fontSize=16;" vertex="1" parent="WIyWlLk6GJQsqaUBKTNV-1">
          <mxGeometry x="530" y="550" width="190" height="60" as="geometry" />
        </mxCell>
        <mxCell id="Ao3rH_xXCLcviRNf2sBv-27" value="" style="edgeStyle=none;curved=1;rounded=0;orthogonalLoop=1;jettySize=auto;html=1;fontSize=12;startSize=8;endSize=8;" edge="1" parent="WIyWlLk6GJQsqaUBKTNV-1" source="Ao3rH_xXCLcviRNf2sBv-24" target="Ao3rH_xXCLcviRNf2sBv-26">
          <mxGeometry relative="1" as="geometry" />
        </mxCell>
        <mxCell id="Ao3rH_xXCLcviRNf2sBv-38" value="" style="edgeStyle=none;curved=1;rounded=0;orthogonalLoop=1;jettySize=auto;html=1;fontSize=12;startSize=8;endSize=8;" edge="1" parent="WIyWlLk6GJQsqaUBKTNV-1" source="Ao3rH_xXCLcviRNf2sBv-24" target="Ao3rH_xXCLcviRNf2sBv-37">
          <mxGeometry relative="1" as="geometry" />
        </mxCell>
        <mxCell id="Ao3rH_xXCLcviRNf2sBv-24" value="i = 0; i&amp;lt;primary.Length; i++" style="shape=hexagon;perimeter=hexagonPerimeter2;whiteSpace=wrap;html=1;fixedSize=1;fontSize=16;" vertex="1" parent="WIyWlLk6GJQsqaUBKTNV-1">
          <mxGeometry x="780" y="540" width="230" height="80" as="geometry" />
        </mxCell>
        <mxCell id="Ao3rH_xXCLcviRNf2sBv-28" style="edgeStyle=none;curved=1;rounded=0;orthogonalLoop=1;jettySize=auto;html=1;fontSize=12;startSize=8;endSize=8;entryX=0.072;entryY=1.025;entryDx=0;entryDy=0;entryPerimeter=0;" edge="1" parent="WIyWlLk6GJQsqaUBKTNV-1" source="Ao3rH_xXCLcviRNf2sBv-26" target="Ao3rH_xXCLcviRNf2sBv-24">
          <mxGeometry relative="1" as="geometry">
            <mxPoint x="700" y="730" as="targetPoint" />
            <Array as="points">
              <mxPoint x="720" y="770" />
            </Array>
          </mxGeometry>
        </mxCell>
        <mxCell id="Ao3rH_xXCLcviRNf2sBv-31" value="" style="edgeStyle=none;curved=1;rounded=0;orthogonalLoop=1;jettySize=auto;html=1;fontSize=12;startSize=8;endSize=8;" edge="1" parent="WIyWlLk6GJQsqaUBKTNV-1" source="Ao3rH_xXCLcviRNf2sBv-26" target="Ao3rH_xXCLcviRNf2sBv-30">
          <mxGeometry relative="1" as="geometry" />
        </mxCell>
        <mxCell id="Ao3rH_xXCLcviRNf2sBv-26" value="primary[i].Length&amp;lt;=3" style="rhombus;whiteSpace=wrap;html=1;fontSize=16;" vertex="1" parent="WIyWlLk6GJQsqaUBKTNV-1">
          <mxGeometry x="785" y="680" width="220" height="100" as="geometry" />
        </mxCell>
        <mxCell id="Ao3rH_xXCLcviRNf2sBv-29" value="no" style="text;html=1;align=center;verticalAlign=middle;resizable=0;points=[];autosize=1;strokeColor=none;fillColor=none;fontSize=16;" vertex="1" parent="WIyWlLk6GJQsqaUBKTNV-1">
          <mxGeometry x="760" y="668" width="40" height="30" as="geometry" />
        </mxCell>
        <mxCell id="Ao3rH_xXCLcviRNf2sBv-35" style="edgeStyle=none;curved=1;rounded=0;orthogonalLoop=1;jettySize=auto;html=1;fontSize=12;startSize=8;endSize=8;" edge="1" parent="WIyWlLk6GJQsqaUBKTNV-1" source="Ao3rH_xXCLcviRNf2sBv-30" target="Ao3rH_xXCLcviRNf2sBv-24">
          <mxGeometry relative="1" as="geometry">
            <mxPoint x="750" y="640" as="targetPoint" />
            <Array as="points">
              <mxPoint x="630" y="900" />
              <mxPoint x="630" y="690" />
            </Array>
          </mxGeometry>
        </mxCell>
        <mxCell id="Ao3rH_xXCLcviRNf2sBv-30" value="secondary[index] = primary[i]&lt;br&gt;index++" style="whiteSpace=wrap;html=1;fontSize=16;" vertex="1" parent="WIyWlLk6GJQsqaUBKTNV-1">
          <mxGeometry x="785" y="850" width="217.5" height="60" as="geometry" />
        </mxCell>
        <mxCell id="Ao3rH_xXCLcviRNf2sBv-34" value="yes" style="text;html=1;align=center;verticalAlign=middle;resizable=0;points=[];autosize=1;strokeColor=none;fillColor=none;fontSize=16;" vertex="1" parent="WIyWlLk6GJQsqaUBKTNV-1">
          <mxGeometry x="885" y="798" width="50" height="30" as="geometry" />
        </mxCell>
        <mxCell id="Ao3rH_xXCLcviRNf2sBv-36" value="yes" style="text;html=1;align=center;verticalAlign=middle;resizable=0;points=[];autosize=1;strokeColor=none;fillColor=none;fontSize=16;" vertex="1" parent="WIyWlLk6GJQsqaUBKTNV-1">
          <mxGeometry x="660" y="840" width="50" height="30" as="geometry" />
        </mxCell>
        <mxCell id="Ao3rH_xXCLcviRNf2sBv-40" value="" style="edgeStyle=none;curved=1;rounded=0;orthogonalLoop=1;jettySize=auto;html=1;fontSize=12;startSize=8;endSize=8;" edge="1" parent="WIyWlLk6GJQsqaUBKTNV-1" source="Ao3rH_xXCLcviRNf2sBv-37" target="Ao3rH_xXCLcviRNf2sBv-39">
          <mxGeometry relative="1" as="geometry" />
        </mxCell>
        <mxCell id="Ao3rH_xXCLcviRNf2sBv-37" value="primary[]&lt;br&gt;secondary[]" style="shape=document;whiteSpace=wrap;html=1;boundedLbl=1;fontSize=16;" vertex="1" parent="WIyWlLk6GJQsqaUBKTNV-1">
          <mxGeometry x="1090" y="515" width="200" height="130" as="geometry" />
        </mxCell>
        <mxCell id="Ao3rH_xXCLcviRNf2sBv-39" value="END" style="ellipse;whiteSpace=wrap;html=1;fontSize=16;" vertex="1" parent="WIyWlLk6GJQsqaUBKTNV-1">
          <mxGeometry x="1110" y="700" width="160" height="80" as="geometry" />
        </mxCell>
      </root>
    </mxGraphModel>
  </diagram>
</mxfile>
